<mxfile host="app.diagrams.net" modified="2021-04-07T11:02:40.394Z" agent="5.0 (Windows NT 10.0; Win64; x64) AppleWebKit/537.36 (KHTML, like Gecko) Chrome/89.0.4389.90 Safari/537.36 Edg/89.0.774.63" etag="_JVzb6o7MBdUJXNaVtFC" version="14.5.3" type="github">
  <diagram id="lK9nZaVqMlM8sbXci29S" name="Page-1">
    <mxGraphModel dx="438" dy="652" grid="0" gridSize="10" guides="1" tooltips="1" connect="1" arrows="1" fold="1" page="0" pageScale="1" pageWidth="827" pageHeight="1169" math="0" shadow="0">
      <root>
        <mxCell id="0" />
        <mxCell id="1" parent="0" />
        <mxCell id="Fjx9dnmoz72Yz2STyHT2-3" value="" style="edgeStyle=orthogonalEdgeStyle;rounded=0;orthogonalLoop=1;jettySize=auto;html=1;" edge="1" parent="1" source="Fjx9dnmoz72Yz2STyHT2-1" target="Fjx9dnmoz72Yz2STyHT2-2">
          <mxGeometry relative="1" as="geometry" />
        </mxCell>
        <UserObject label="&lt;div style=&quot;font-size: 14px;&quot;&gt;job.JobFactory.&lt;/div&gt;&lt;div style=&quot;font-size: 14px;&quot;&gt;createJob()&lt;br style=&quot;color: rgb(0, 0, 0); font-family: helvetica; font-size: 14px; font-style: normal; letter-spacing: normal; text-align: center; text-indent: 0px; text-transform: none; word-spacing: 0px; background-color: rgb(255, 255, 255);&quot;&gt;&lt;br style=&quot;font-size: 14px;&quot;&gt;&lt;/div&gt;" id="Fjx9dnmoz72Yz2STyHT2-1">
          <mxCell style="whiteSpace=wrap;html=1;align=center;treeFolding=1;treeMoving=1;newEdgeStyle={&quot;edgeStyle&quot;:&quot;elbowEdgeStyle&quot;,&quot;startArrow&quot;:&quot;none&quot;,&quot;endArrow&quot;:&quot;none&quot;};fontStyle=0;fontSize=14;" vertex="1" parent="1">
            <mxGeometry x="806" y="235" width="164" height="60" as="geometry" />
          </mxCell>
        </UserObject>
        <UserObject label="&lt;div style=&quot;font-size: 14px&quot;&gt;job.JobFactory.&lt;/div&gt;&lt;div style=&quot;font-size: 14px&quot;&gt;getRestoreJob()&lt;br style=&quot;color: rgb(0 , 0 , 0) ; font-family: &amp;#34;helvetica&amp;#34; ; font-size: 14px ; font-style: normal ; letter-spacing: normal ; text-align: center ; text-indent: 0px ; text-transform: none ; word-spacing: 0px ; background-color: rgb(255 , 255 , 255)&quot;&gt;&lt;br style=&quot;font-size: 14px&quot;&gt;&lt;/div&gt;" id="Fjx9dnmoz72Yz2STyHT2-2">
          <mxCell style="whiteSpace=wrap;html=1;align=center;treeFolding=1;treeMoving=1;newEdgeStyle={&quot;edgeStyle&quot;:&quot;elbowEdgeStyle&quot;,&quot;startArrow&quot;:&quot;none&quot;,&quot;endArrow&quot;:&quot;none&quot;};fontStyle=0;fontSize=14;" vertex="1" parent="1">
            <mxGeometry x="1050" y="235" width="164" height="60" as="geometry" />
          </mxCell>
        </UserObject>
        <mxCell id="Fjx9dnmoz72Yz2STyHT2-6" value="" style="edgeStyle=orthogonalEdgeStyle;rounded=0;orthogonalLoop=1;jettySize=auto;html=1;" edge="1" parent="1" source="Fjx9dnmoz72Yz2STyHT2-4" target="Fjx9dnmoz72Yz2STyHT2-5">
          <mxGeometry relative="1" as="geometry" />
        </mxCell>
        <mxCell id="Fjx9dnmoz72Yz2STyHT2-7" value="" style="edgeStyle=orthogonalEdgeStyle;rounded=0;orthogonalLoop=1;jettySize=auto;html=1;" edge="1" parent="1" source="Fjx9dnmoz72Yz2STyHT2-4" target="Fjx9dnmoz72Yz2STyHT2-5">
          <mxGeometry relative="1" as="geometry" />
        </mxCell>
        <mxCell id="Fjx9dnmoz72Yz2STyHT2-9" style="edgeStyle=orthogonalEdgeStyle;rounded=0;orthogonalLoop=1;jettySize=auto;html=1;exitX=0.75;exitY=1;exitDx=0;exitDy=0;entryX=0;entryY=0.5;entryDx=0;entryDy=0;" edge="1" parent="1" source="Fjx9dnmoz72Yz2STyHT2-4" target="Fjx9dnmoz72Yz2STyHT2-8">
          <mxGeometry relative="1" as="geometry" />
        </mxCell>
        <mxCell id="Fjx9dnmoz72Yz2STyHT2-11" style="edgeStyle=orthogonalEdgeStyle;rounded=0;orthogonalLoop=1;jettySize=auto;html=1;exitX=0.5;exitY=1;exitDx=0;exitDy=0;entryX=0;entryY=0.5;entryDx=0;entryDy=0;" edge="1" parent="1" source="Fjx9dnmoz72Yz2STyHT2-4" target="Fjx9dnmoz72Yz2STyHT2-10">
          <mxGeometry relative="1" as="geometry" />
        </mxCell>
        <UserObject label="&lt;div style=&quot;font-size: 14px&quot;&gt;job.RestoreJob.&lt;/div&gt;&lt;div style=&quot;font-size: 14px&quot;&gt;triggerJob()&lt;br style=&quot;color: rgb(0 , 0 , 0) ; font-family: &amp;#34;helvetica&amp;#34; ; font-size: 14px ; font-style: normal ; letter-spacing: normal ; text-align: center ; text-indent: 0px ; text-transform: none ; word-spacing: 0px ; background-color: rgb(255 , 255 , 255)&quot;&gt;&lt;br style=&quot;font-size: 14px&quot;&gt;&lt;/div&gt;" id="Fjx9dnmoz72Yz2STyHT2-4">
          <mxCell style="whiteSpace=wrap;html=1;align=center;treeFolding=1;treeMoving=1;newEdgeStyle={&quot;edgeStyle&quot;:&quot;elbowEdgeStyle&quot;,&quot;startArrow&quot;:&quot;none&quot;,&quot;endArrow&quot;:&quot;none&quot;};fontStyle=0;fontSize=14;" vertex="1" parent="1">
            <mxGeometry x="806" y="328" width="164" height="60" as="geometry" />
          </mxCell>
        </UserObject>
        <mxCell id="Fjx9dnmoz72Yz2STyHT2-24" value="" style="edgeStyle=orthogonalEdgeStyle;rounded=0;orthogonalLoop=1;jettySize=auto;html=1;" edge="1" parent="1" source="Fjx9dnmoz72Yz2STyHT2-5" target="Fjx9dnmoz72Yz2STyHT2-23">
          <mxGeometry relative="1" as="geometry" />
        </mxCell>
        <UserObject label="&lt;div style=&quot;font-size: 14px&quot;&gt;backup.BackupManager.&lt;/div&gt;&lt;div style=&quot;font-size: 14px&quot;&gt;getBackup()&lt;br style=&quot;color: rgb(0 , 0 , 0) ; font-family: &amp;#34;helvetica&amp;#34; ; font-size: 14px ; font-style: normal ; letter-spacing: normal ; text-align: center ; text-indent: 0px ; text-transform: none ; word-spacing: 0px ; background-color: rgb(255 , 255 , 255)&quot;&gt;&lt;br style=&quot;font-size: 14px&quot;&gt;&lt;/div&gt;" id="Fjx9dnmoz72Yz2STyHT2-5">
          <mxCell style="whiteSpace=wrap;html=1;align=center;treeFolding=1;treeMoving=1;newEdgeStyle={&quot;edgeStyle&quot;:&quot;elbowEdgeStyle&quot;,&quot;startArrow&quot;:&quot;none&quot;,&quot;endArrow&quot;:&quot;none&quot;};fontStyle=0;fontSize=14;" vertex="1" parent="1">
            <mxGeometry x="1050" y="328" width="164" height="60" as="geometry" />
          </mxCell>
        </UserObject>
        <UserObject label="&lt;div style=&quot;font-size: 14px&quot;&gt;job.RestoreJob.&lt;/div&gt;&lt;div style=&quot;font-size: 14px&quot;&gt;validate()&lt;br style=&quot;color: rgb(0 , 0 , 0) ; font-family: &amp;#34;helvetica&amp;#34; ; font-size: 14px ; font-style: normal ; letter-spacing: normal ; text-align: center ; text-indent: 0px ; text-transform: none ; word-spacing: 0px ; background-color: rgb(255 , 255 , 255)&quot;&gt;&lt;br style=&quot;font-size: 14px&quot;&gt;&lt;/div&gt;" id="Fjx9dnmoz72Yz2STyHT2-8">
          <mxCell style="whiteSpace=wrap;html=1;align=center;treeFolding=1;treeMoving=1;newEdgeStyle={&quot;edgeStyle&quot;:&quot;elbowEdgeStyle&quot;,&quot;startArrow&quot;:&quot;none&quot;,&quot;endArrow&quot;:&quot;none&quot;};fontStyle=0;fontSize=14;" vertex="1" parent="1">
            <mxGeometry x="1050" y="408" width="164" height="60" as="geometry" />
          </mxCell>
        </UserObject>
        <mxCell id="Fjx9dnmoz72Yz2STyHT2-13" value="" style="edgeStyle=orthogonalEdgeStyle;rounded=0;orthogonalLoop=1;jettySize=auto;html=1;" edge="1" parent="1" source="Fjx9dnmoz72Yz2STyHT2-10" target="Fjx9dnmoz72Yz2STyHT2-12">
          <mxGeometry relative="1" as="geometry" />
        </mxCell>
        <UserObject label="&lt;div style=&quot;font-size: 14px&quot;&gt;job.JobStage.&lt;/div&gt;&lt;div style=&quot;font-size: 14px&quot;&gt;trigger()&lt;br style=&quot;color: rgb(0 , 0 , 0) ; font-family: &amp;#34;helvetica&amp;#34; ; font-size: 14px ; font-style: normal ; letter-spacing: normal ; text-align: center ; text-indent: 0px ; text-transform: none ; word-spacing: 0px ; background-color: rgb(255 , 255 , 255)&quot;&gt;&lt;br style=&quot;font-size: 14px&quot;&gt;&lt;/div&gt;" id="Fjx9dnmoz72Yz2STyHT2-10">
          <mxCell style="whiteSpace=wrap;html=1;align=center;treeFolding=1;treeMoving=1;newEdgeStyle={&quot;edgeStyle&quot;:&quot;elbowEdgeStyle&quot;,&quot;startArrow&quot;:&quot;none&quot;,&quot;endArrow&quot;:&quot;none&quot;};fontStyle=0;fontSize=14;" vertex="1" parent="1">
            <mxGeometry x="1050" y="482" width="164" height="60" as="geometry" />
          </mxCell>
        </UserObject>
        <mxCell id="Fjx9dnmoz72Yz2STyHT2-15" value="" style="edgeStyle=orthogonalEdgeStyle;rounded=0;orthogonalLoop=1;jettySize=auto;html=1;" edge="1" parent="1" source="Fjx9dnmoz72Yz2STyHT2-12" target="Fjx9dnmoz72Yz2STyHT2-14">
          <mxGeometry relative="1" as="geometry" />
        </mxCell>
        <UserObject label="&lt;div style=&quot;font-size: 14px&quot;&gt;job.Stage.&lt;/div&gt;&lt;div style=&quot;font-size: 14px&quot;&gt;PreparingRestoreJobStage&lt;/div&gt;&lt;div style=&quot;font-size: 14px&quot;&gt;handleTrigger()&lt;br style=&quot;color: rgb(0 , 0 , 0) ; font-family: &amp;#34;helvetica&amp;#34; ; font-size: 14px ; font-style: normal ; letter-spacing: normal ; text-align: center ; text-indent: 0px ; text-transform: none ; word-spacing: 0px ; background-color: rgb(255 , 255 , 255)&quot;&gt;&lt;br style=&quot;font-size: 14px&quot;&gt;&lt;/div&gt;" id="Fjx9dnmoz72Yz2STyHT2-12">
          <mxCell style="whiteSpace=wrap;html=1;align=center;treeFolding=1;treeMoving=1;newEdgeStyle={&quot;edgeStyle&quot;:&quot;elbowEdgeStyle&quot;,&quot;startArrow&quot;:&quot;none&quot;,&quot;endArrow&quot;:&quot;none&quot;};fontStyle=0;fontSize=14;" vertex="1" parent="1">
            <mxGeometry x="1294" y="482" width="164" height="60" as="geometry" />
          </mxCell>
        </UserObject>
        <mxCell id="Fjx9dnmoz72Yz2STyHT2-17" value="" style="edgeStyle=orthogonalEdgeStyle;rounded=0;orthogonalLoop=1;jettySize=auto;html=1;" edge="1" parent="1" source="Fjx9dnmoz72Yz2STyHT2-14" target="Fjx9dnmoz72Yz2STyHT2-16">
          <mxGeometry relative="1" as="geometry" />
        </mxCell>
        <UserObject label="&lt;div style=&quot;font-size: 14px&quot;&gt;agent.Agent.&lt;/div&gt;&lt;div style=&quot;font-size: 14px&quot;&gt;&lt;span&gt;prepareForRestore()&lt;/span&gt;&lt;/div&gt;&lt;div style=&quot;font-size: 14px&quot;&gt;&lt;br style=&quot;font-size: 14px&quot;&gt;&lt;/div&gt;" id="Fjx9dnmoz72Yz2STyHT2-14">
          <mxCell style="whiteSpace=wrap;html=1;align=center;treeFolding=1;treeMoving=1;newEdgeStyle={&quot;edgeStyle&quot;:&quot;elbowEdgeStyle&quot;,&quot;startArrow&quot;:&quot;none&quot;,&quot;endArrow&quot;:&quot;none&quot;};fontStyle=0;fontSize=14;" vertex="1" parent="1">
            <mxGeometry x="1538" y="482" width="164" height="60" as="geometry" />
          </mxCell>
        </UserObject>
        <mxCell id="Fjx9dnmoz72Yz2STyHT2-20" value="" style="edgeStyle=orthogonalEdgeStyle;rounded=0;orthogonalLoop=1;jettySize=auto;html=1;" edge="1" parent="1" source="Fjx9dnmoz72Yz2STyHT2-16" target="Fjx9dnmoz72Yz2STyHT2-19">
          <mxGeometry relative="1" as="geometry" />
        </mxCell>
        <UserObject label="&lt;div style=&quot;font-size: 14px&quot;&gt;agent.state.&lt;/div&gt;&lt;div style=&quot;font-size: 14px&quot;&gt;RecognizedState&lt;/div&gt;&lt;div style=&quot;font-size: 14px&quot;&gt;&lt;span&gt;prepareForRestore()&lt;/span&gt;&lt;/div&gt;&lt;div style=&quot;font-size: 14px&quot;&gt;&lt;br style=&quot;font-size: 14px&quot;&gt;&lt;/div&gt;" id="Fjx9dnmoz72Yz2STyHT2-16">
          <mxCell style="whiteSpace=wrap;html=1;align=center;treeFolding=1;treeMoving=1;newEdgeStyle={&quot;edgeStyle&quot;:&quot;elbowEdgeStyle&quot;,&quot;startArrow&quot;:&quot;none&quot;,&quot;endArrow&quot;:&quot;none&quot;};fontStyle=0;fontSize=14;" vertex="1" parent="1">
            <mxGeometry x="1782" y="482" width="164" height="60" as="geometry" />
          </mxCell>
        </UserObject>
        <mxCell id="Fjx9dnmoz72Yz2STyHT2-18" value="" style="rounded=0;whiteSpace=wrap;html=1;" vertex="1" parent="1">
          <mxGeometry x="868" y="705" width="120" height="60" as="geometry" />
        </mxCell>
        <mxCell id="Fjx9dnmoz72Yz2STyHT2-22" value="" style="edgeStyle=orthogonalEdgeStyle;rounded=0;orthogonalLoop=1;jettySize=auto;html=1;" edge="1" parent="1" source="Fjx9dnmoz72Yz2STyHT2-19" target="Fjx9dnmoz72Yz2STyHT2-21">
          <mxGeometry relative="1" as="geometry" />
        </mxCell>
        <UserObject label="&lt;div style=&quot;font-size: 14px&quot;&gt;agent.&lt;/div&gt;&lt;div style=&quot;font-size: 14px&quot;&gt;AgentInputStream.&lt;/div&gt;&lt;div style=&quot;font-size: 14px&quot;&gt;&lt;span&gt;prepareForRestore()&lt;/span&gt;&lt;/div&gt;&lt;div style=&quot;font-size: 14px&quot;&gt;&lt;br style=&quot;font-size: 14px&quot;&gt;&lt;/div&gt;" id="Fjx9dnmoz72Yz2STyHT2-19">
          <mxCell style="whiteSpace=wrap;html=1;align=center;treeFolding=1;treeMoving=1;newEdgeStyle={&quot;edgeStyle&quot;:&quot;elbowEdgeStyle&quot;,&quot;startArrow&quot;:&quot;none&quot;,&quot;endArrow&quot;:&quot;none&quot;};fontStyle=0;fontSize=14;" vertex="1" parent="1">
            <mxGeometry x="2026" y="482" width="164" height="60" as="geometry" />
          </mxCell>
        </UserObject>
        <UserObject label="&lt;div style=&quot;font-size: 14px&quot;&gt;agent.&lt;/div&gt;&lt;div style=&quot;font-size: 14px&quot;&gt;AgentInputStream.&lt;/div&gt;&lt;div style=&quot;font-size: 14px&quot;&gt;&lt;span&gt;sendMessage()&lt;/span&gt;&lt;/div&gt;&lt;div style=&quot;font-size: 14px&quot;&gt;&lt;br style=&quot;font-size: 14px&quot;&gt;&lt;/div&gt;" id="Fjx9dnmoz72Yz2STyHT2-21">
          <mxCell style="whiteSpace=wrap;html=1;align=center;treeFolding=1;treeMoving=1;newEdgeStyle={&quot;edgeStyle&quot;:&quot;elbowEdgeStyle&quot;,&quot;startArrow&quot;:&quot;none&quot;,&quot;endArrow&quot;:&quot;none&quot;};fontStyle=0;fontSize=14;" vertex="1" parent="1">
            <mxGeometry x="2270" y="482" width="164" height="60" as="geometry" />
          </mxCell>
        </UserObject>
        <UserObject label="&lt;div style=&quot;font-size: 14px&quot;&gt;backup.BackupManager.&lt;/div&gt;&lt;div style=&quot;font-size: 14px&quot;&gt;getBackups()&lt;br style=&quot;color: rgb(0 , 0 , 0) ; font-family: &amp;#34;helvetica&amp;#34; ; font-size: 14px ; font-style: normal ; letter-spacing: normal ; text-align: center ; text-indent: 0px ; text-transform: none ; word-spacing: 0px ; background-color: rgb(255 , 255 , 255)&quot;&gt;&lt;br style=&quot;font-size: 14px&quot;&gt;&lt;/div&gt;" id="Fjx9dnmoz72Yz2STyHT2-23">
          <mxCell style="whiteSpace=wrap;html=1;align=center;treeFolding=1;treeMoving=1;newEdgeStyle={&quot;edgeStyle&quot;:&quot;elbowEdgeStyle&quot;,&quot;startArrow&quot;:&quot;none&quot;,&quot;endArrow&quot;:&quot;none&quot;};fontStyle=0;fontSize=14;" vertex="1" parent="1">
            <mxGeometry x="1294" y="328" width="164" height="60" as="geometry" />
          </mxCell>
        </UserObject>
      </root>
    </mxGraphModel>
  </diagram>
</mxfile>
